<svg width="88" height="125" viewBox="0 0 88 125" fill="none" xmlns="http://www.w3.org/2000/svg">
<g clip-path="url(#clip0_1_10334)">
<path d="M15.93 69.3999C15.93 69.6899 15.92 69.8799 15.9 69.8799C15.9 69.8799 15.87 69.7599 15.86 69.7199C15.85 69.6599 15.87 69.5399 15.93 69.3999Z" fill="black"/>
<path d="M38.92 33.6699C37.4 34.8399 35.89 36.2399 34.5 37.9199C34.5 37.9199 33.27 39.3899 32.24 41.0699C30.41 44.0399 28.57 50.7599 28.2 59.5999C27.48 59.9299 26.84 60.2499 26.26 60.5499C19.34 64.1799 16.43 68.1399 15.94 69.3899C15.95 68.4599 15.89 66.5299 15.89 66.3099C15.54 52.6699 17.62 42.9799 19.76 36.7299C21.95 30.3399 26.09 24.7599 31.66 20.9499C32.16 20.6099 34.44 19.0299 37.96 17.5299C44.94 14.5599 51.27 14.2799 55.09 14.4099C65.93 14.3999 76.77 14.3899 87.61 14.3899C87.6 9.58995 87.59 4.79995 87.58 0.00994635H55.48C49.9 -0.100054 32.4 0.299947 18.42 12.9699C6.84002 23.4699 3.67003 36.9299 1.74003 45.3999C0.450026 51.0599 0.310026 59.9899 0.0500256 77.8399C-0.0599744 85.2399 0.0600256 88.3599 0.0600256 112.18C0.0600256 117.43 0.0600256 121.72 0.0500256 124.5H16.55C16.54 122.81 16.53 120.3 16.56 117.26C16.66 105.49 16.76 97.5399 17.78 92.9199C18.39 90.1399 20.33 84.06 28.53 77.4399C34.74 72.42 42.54 69.7999 50.52 69.8199C56.4 69.8399 62.28 69.8599 68.16 69.8799C68.13 67.3999 68.11 64.8999 68.1 62.3799C68.09 59.9199 68.09 57.4699 68.1 55.0399C62.11 55.0299 56.11 55.0099 50.12 54.9999C47.7 55.0399 45.45 55.2099 43.37 55.4699C43.2 53.7499 43.31 51.3299 44.52 48.8299C45.02 47.7999 46.46 44.9299 49.81 43.3499C51.7 42.4499 53.46 42.3299 54.47 42.3399H79.53C79.53 37.5399 79.54 32.7399 79.54 27.9399H56.44C50.14 27.9399 43.93 29.8399 38.92 33.6699ZM15.9 69.8799C15.9 69.8799 15.87 69.7599 15.86 69.7199C15.85 69.66 15.87 69.5399 15.93 69.3999C15.93 69.6899 15.92 69.8799 15.9 69.8799Z" fill="#242A38"/>
<path d="M28.28 124.5V87.5299C29.38 85.8599 31.73 82.8099 35.82 80.5799C38.76 78.9699 41.5 78.3899 43.29 78.1699C43.3 93.6199 43.31 109.06 43.32 124.51C38.31 124.51 33.3 124.51 28.28 124.51V124.5Z" fill="#242A38"/>
</g>
<defs>
<clipPath id="clip0_1_10334">
<rect width="87.61" height="124.51" fill="white"/>
</clipPath>
</defs>
</svg>
