<svg width="186" height="54" viewBox="0 0 186 54" fill="none" xmlns="http://www.w3.org/2000/svg">
<g clip-path="url(#clip0_4_257)">
<path d="M7.12003 30.0988C7.12003 30.2246 7.11556 30.307 7.10662 30.307C7.10662 30.307 7.09321 30.2549 7.08874 30.2376C7.08427 30.2115 7.09321 30.1595 7.12003 30.0988Z" fill="black"/>
<path d="M17.3959 14.6025C16.7165 15.1099 16.0416 15.7171 15.4204 16.4457C15.4204 16.4457 14.8706 17.0832 14.4102 17.8119C13.5923 19.0999 12.7699 22.0144 12.6045 25.8483C12.2827 25.9914 11.9967 26.1302 11.7374 26.2603C8.6445 27.8347 7.34386 29.5521 7.12485 30.0942C7.12932 29.6909 7.1025 28.8539 7.1025 28.7584C6.94606 22.8428 7.87573 18.6402 8.83222 15.9296C9.81106 13.1583 11.6615 10.7382 14.151 9.08581C14.3745 8.93835 15.3935 8.25311 16.9668 7.60256C20.0866 6.31447 22.9158 6.19303 24.6232 6.24941C29.4682 6.24508 34.3132 6.24074 39.1582 6.24074C39.1538 4.15898 39.1493 2.08155 39.1448 0.0041313H24.7975C22.3035 -0.0435757 14.4818 0.129905 8.2333 5.62488C3.05754 10.1787 1.64069 16.0163 0.77806 19.6898C0.201486 22.1445 0.138912 26.0175 0.0227029 33.759C-0.0264624 36.9684 0.0271724 38.3215 0.0271724 48.6523C0.0271724 50.9292 0.0271724 52.7898 0.0227029 53.9955H7.39749C7.39302 53.2625 7.38855 52.1739 7.40196 50.8555C7.44666 45.7508 7.49135 42.3029 7.94725 40.2992C8.21989 39.0935 9.08699 36.4566 12.752 33.5855C15.5276 31.4084 19.0139 30.2721 22.5806 30.2807C25.2087 30.2894 27.8368 30.2981 30.4649 30.3068C30.4515 29.2312 30.4426 28.1469 30.4381 27.054C30.4336 25.9871 30.4336 24.9245 30.4381 23.8706C27.7608 23.8663 25.0791 23.8576 22.4018 23.8533C21.3202 23.8706 20.3145 23.9444 19.3849 24.0571C19.3089 23.3112 19.3581 22.2616 19.8989 21.1774C20.1224 20.7307 20.766 19.4859 22.2633 18.8007C23.108 18.4104 23.8947 18.3583 24.3461 18.3627H35.5468C35.5468 16.2809 35.5513 14.1991 35.5513 12.1174H25.2266C22.4108 12.1174 19.6352 12.9414 17.3959 14.6025ZM7.10697 30.3068C7.10697 30.3068 7.09356 30.2547 7.08909 30.2374C7.08462 30.2113 7.09356 30.1593 7.12038 30.0986C7.12038 30.2244 7.11591 30.3068 7.10697 30.3068Z" fill="#FEFEFE"/>
<path d="M12.6399 53.9957V37.9618C13.1315 37.2375 14.1819 35.9147 16.0099 34.9476C17.324 34.2493 18.5487 33.9978 19.3487 33.9023C19.3532 40.603 19.3577 47.2993 19.3621 54C17.1229 54 14.8836 54 12.6399 54V53.9957Z" fill="#FEFEFE"/>
</g>
<path d="M55.102 32.3846H57.58V28.5486H61.612V27.1626H57.58V23.5926H62.06V22.2066H55.102V32.3846ZM63.6414 32.3846H65.9094V21.6466H63.6414V32.3846ZM73.3937 32.3846H75.4377V24.9506H73.1697V28.9546C73.1697 30.0746 72.7077 31.0126 71.5877 31.0126C70.3977 31.0126 70.0477 30.1166 70.0477 28.8286V24.9506H67.7797V28.9826C67.7797 31.1526 68.7457 32.5246 70.8597 32.5246C71.9377 32.5246 72.9177 31.9366 73.1697 31.2646L73.3937 32.3846ZM84.533 30.0046H82.265C82.265 30.8866 81.901 31.4186 81.019 31.4186C79.885 31.4186 79.395 30.2846 79.297 29.1226H84.603C84.617 28.8986 84.631 28.6746 84.631 28.4646C84.631 26.1546 83.175 24.8106 80.865 24.8106C78.485 24.8106 76.945 26.2946 76.945 28.6746C76.945 31.0966 78.597 32.5246 81.019 32.5246C82.839 32.5246 84.533 31.8246 84.533 30.0046ZM80.865 25.9166C82.027 25.9166 82.419 26.8686 82.419 28.0306H79.311C79.409 26.9386 79.787 25.9166 80.865 25.9166ZM88.3296 28.3106C88.3296 27.2326 88.9036 26.3226 89.9816 26.3226C91.1156 26.3226 91.6476 27.1066 91.6476 28.2266V32.3846H93.9156V28.0306C93.9156 26.0006 92.7396 24.8106 90.6956 24.8106C89.6036 24.8106 88.7916 25.3286 88.3296 26.0986L88.1056 24.9506H86.0616V32.3846H88.3296V28.3106ZM100.304 32.1606V31.0686C99.968 31.1526 99.534 31.1806 99.282 31.1526C98.498 31.0686 98.456 30.6206 98.456 29.8226V26.0426H100.22V24.9506H98.456V23.0746L96.188 23.6206V24.9506H95.152V26.0426H96.188V29.9906C96.188 31.7826 96.944 32.4686 98.736 32.4686C99.338 32.4686 99.926 32.3426 100.304 32.1606ZM106.057 32.3846H108.535V28.5486H112.567V27.1626H108.535V23.5926H113.015V22.2066H106.057V32.3846ZM117.228 22.6546C117.228 21.9406 116.626 21.3666 115.898 21.3666C115.184 21.3666 114.596 21.9406 114.596 22.6546C114.596 23.3826 115.184 23.9566 115.898 23.9566C116.626 23.9566 117.228 23.3826 117.228 22.6546ZM114.778 32.3846H117.046V24.9506H114.778V32.3846ZM121.443 28.3106C121.443 27.2326 122.017 26.3226 123.095 26.3226C124.229 26.3226 124.761 27.1066 124.761 28.2266V32.3846H127.029V28.0306C127.029 26.0006 125.853 24.8106 123.809 24.8106C122.717 24.8106 121.905 25.3286 121.443 26.0986L121.219 24.9506H119.175V32.3846H121.443V28.3106ZM133.963 32.3846H135.853V27.6386C135.853 25.6926 134.341 24.8106 132.367 24.8106C130.057 24.8106 128.937 25.7066 128.937 27.0506V27.2046H131.149C131.149 26.3926 131.541 25.9306 132.367 25.9306C133.221 25.9306 133.585 26.5186 133.585 27.3586V28.0026C133.277 27.9886 132.955 27.9746 132.633 27.9746C131.401 27.9746 130.477 28.0726 129.721 28.4646C128.979 28.8566 128.503 29.4866 128.503 30.3826C128.503 31.8386 129.595 32.5246 131.093 32.5246C132.423 32.5246 133.263 32.0486 133.613 31.3766L133.963 32.3846ZM130.827 30.2566C130.827 29.8926 130.981 29.6266 131.247 29.4306C131.667 29.1506 132.409 29.0526 133.221 29.0526H133.585V29.4586C133.585 30.5506 133.053 31.2786 132.003 31.2786C131.205 31.2786 130.827 30.8446 130.827 30.2566ZM139.996 28.3106C139.996 27.2326 140.57 26.3226 141.648 26.3226C142.782 26.3226 143.314 27.1066 143.314 28.2266V32.3846H145.582V28.0306C145.582 26.0006 144.406 24.8106 142.362 24.8106C141.27 24.8106 140.458 25.3286 139.996 26.0986L139.772 24.9506H137.728V32.3846H139.996V28.3106ZM154.504 29.8086V29.6546H152.194C152.194 30.6066 151.816 31.3346 150.864 31.3346C149.562 31.3346 149.324 30.0186 149.324 28.7166C149.324 27.4146 149.576 25.9306 150.878 25.9306C151.774 25.9306 152.236 26.7286 152.236 27.6246H154.546V27.4706C154.546 25.7066 152.782 24.8106 150.878 24.8106C148.526 24.8106 146.986 26.3646 146.986 28.7166C146.986 31.0826 148.498 32.5246 150.864 32.5246C152.852 32.5246 154.504 31.6286 154.504 29.8086ZM163.092 30.0046H160.824C160.824 30.8866 160.46 31.4186 159.578 31.4186C158.444 31.4186 157.954 30.2846 157.856 29.1226H163.162C163.176 28.8986 163.19 28.6746 163.19 28.4646C163.19 26.1546 161.734 24.8106 159.424 24.8106C157.044 24.8106 155.504 26.2946 155.504 28.6746C155.504 31.0966 157.156 32.5246 159.578 32.5246C161.398 32.5246 163.092 31.8246 163.092 30.0046ZM159.424 25.9166C160.586 25.9166 160.978 26.8686 160.978 28.0306H157.87C157.968 26.9386 158.346 25.9166 159.424 25.9166Z" fill="white"/>
<path d="M166.944 31.2086C166.944 30.4666 166.356 29.8786 165.614 29.8786C164.886 29.8786 164.298 30.4666 164.298 31.2086C164.298 31.9366 164.886 32.5246 165.614 32.5246C166.356 32.5246 166.944 31.9366 166.944 31.2086Z" fill="#F66763"/>
<defs>
<clipPath id="clip0_4_257">
<rect width="39.1579" height="54" fill="white"/>
</clipPath>
</defs>
</svg>
