<svg width="24" height="25" viewBox="0 0 24 25" fill="none" xmlns="http://www.w3.org/2000/svg">
<g clip-path="url(#clip0_4_296)">
<path d="M12 2.5C6.48 2.5 2 6.98 2 12.5C2 18.02 6.48 22.5 12 22.5C17.52 22.5 22 18.02 22 12.5C22 6.98 17.52 2.5 12 2.5ZM12 20.5C7.59 20.5 4 16.91 4 12.5C4 8.09 7.59 4.5 12 4.5C16.41 4.5 20 8.09 20 12.5C20 16.91 16.41 20.5 12 20.5ZM12.31 11.64C10.54 11.19 9.97 10.7 9.97 9.97C9.97 9.13 10.76 8.54 12.07 8.54C13.45 8.54 13.97 9.2 14.01 10.18H15.72C15.67 8.84 14.85 7.61 13.23 7.21V5.5H10.9V7.19C9.39 7.51 8.18 8.49 8.18 10C8.18 11.79 9.67 12.69 11.84 13.21C13.79 13.67 14.18 14.36 14.18 15.08C14.18 15.61 13.79 16.47 12.08 16.47C10.48 16.47 9.85 15.75 9.76 14.83H8.04C8.14 16.53 9.4 17.49 10.9 17.8V19.5H13.24V17.83C14.76 17.54 15.96 16.67 15.97 15.06C15.96 12.86 14.07 12.1 12.31 11.64Z" fill="#FEFEFE"/>
</g>
<defs>
<clipPath id="clip0_4_296">
<rect width="24" height="24" fill="white" transform="translate(0 0.5)"/>
</clipPath>
</defs>
</svg>
